<?xml version="1.0" encoding="UTF-8"?>
<svg id="Layer_2" data-name="Layer 2" xmlns="http://www.w3.org/2000/svg" viewBox="0 0 541.51 100">
  <g id="Layer_3" data-name="Layer 3">
    <g>
      <path d="M24.73,9.57L.73,81.57c-3.02,9.07,3.73,18.43,13.28,18.43h0c6.03,0,11.38-3.86,13.28-9.57l7.9-23.69c.54-1.63,2.07-2.74,3.79-2.74h46.09c6.02,0,11.37-3.85,13.28-9.56h0c3.03-9.07-3.72-18.44-13.28-18.44h-34.09c-2.73,0-4.66-2.67-3.79-5.26h0c.54-1.63,2.07-2.74,3.79-2.74h476.51c6.03,0,11.38-3.86,13.28-9.57h0C543.8,9.36,537.05,0,527.5,0H38.01c-6.03,0-11.38,3.86-13.28,9.57Z"/>
      <path d="M364.19,45.57h0c-3.02,9.07,3.73,18.43,13.28,18.43h83.51c2.73,0,4.66,2.67,3.8,5.26h0c-.54,1.64-2.07,2.74-3.8,2.74H54.07c-6.03,0-11.38,3.86-13.28,9.57h0c-3.02,9.07,3.73,18.43,13.28,18.43h419.91c6.03,0,11.38-3.86,13.29-9.58l11.96-36c3.01-9.06-3.74-18.42-13.29-18.42h-108.47c-6.03,0-11.38,3.86-13.28,9.57Z"/>
    </g>
  </g>
</svg>